<?plantuml 1.2026.2?><svg xmlns="http://www.w3.org/2000/svg" xmlns:xlink="http://www.w3.org/1999/xlink" contentStyleType="text/css" data-diagram-type="CLASS" height="1165px" preserveAspectRatio="none" style="width:1959px;height:1165px;background:#FFFFFF;" version="1.1" viewBox="0 0 1959 1165" width="1959px" zoomAndPan="magnify"><defs/><g><!--class Product--><g class="entity" data-qualified-name="Product" data-source-line="5" id="ent0002"><rect fill="#F1F1F1" height="259.8594" rx="2.5" ry="2.5" style="stroke:#181818;stroke-width:0.5;" width="497.9121" x="739.5" y="741"/><ellipse cx="957.3511" cy="757" fill="#C2C2C2" rx="11" ry="11" style="stroke:#181818;stroke-width:1;"/><path d="M960.3198,762.6406 Q959.7417,762.9375 959.1011,763.0781 Q958.4604,763.2344 957.7573,763.2344 Q955.2573,763.2344 953.9292,761.5938 Q952.6167,759.9375 952.6167,756.8125 Q952.6167,753.6875 953.9292,752.0313 Q955.2573,750.375 957.7573,750.375 Q958.4604,750.375 959.1011,750.5313 Q959.7573,750.6875 960.3198,750.9844 L960.3198,753.7031 Q959.6948,753.125 959.1011,752.8594 Q958.5073,752.5781 957.8823,752.5781 Q956.5386,752.5781 955.8511,753.6563 Q955.1636,754.7188 955.1636,756.8125 Q955.1636,758.9063 955.8511,759.9844 Q956.5386,761.0469 957.8823,761.0469 Q958.5073,761.0469 959.1011,760.7813 Q959.6948,760.5 960.3198,759.9219 L960.3198,762.6406 Z " fill="#000000"/><text fill="#000000" font-family="sans-serif" font-size="14" lengthAdjust="spacing" textLength="53.71" x="977.8511" y="761.8467">Product</text><line style="stroke:#181818;stroke-width:0.5;" x1="740.5" x2="1236.4121" y1="773" y2="773"/><text fill="#000000" font-family="sans-serif" font-size="14" lengthAdjust="spacing" textLength="56.376" x="745.5" y="789.9951">#id : int</text><text fill="#000000" font-family="sans-serif" font-size="14" lengthAdjust="spacing" textLength="105.2393" x="745.5" y="806.292">#name : string</text><text fill="#000000" font-family="sans-serif" font-size="14" lengthAdjust="spacing" textLength="107.9053" x="745.5" y="822.5889">#price : double</text><text fill="#000000" font-family="sans-serif" font-size="14" lengthAdjust="spacing" textLength="143.377" x="745.5" y="838.8857">#description : string</text><text fill="#000000" font-family="sans-serif" font-size="14" lengthAdjust="spacing" textLength="127.4082" x="745.5" y="855.1826">#category : string</text><line style="stroke:#181818;stroke-width:1;" x1="740.5" x2="1236.4121" y1="862.4844" y2="862.4844"/><text fill="#000000" font-family="sans-serif" font-size="14" lengthAdjust="spacing" textLength="485.9121" x="745.5" y="879.4795">+Product(id: int, name: string, price: double, desc: string, cat: string)</text><text fill="#000000" font-family="sans-serif" font-size="14" lengthAdjust="spacing" textLength="88.0947" x="745.5" y="895.7764">+~Product()</text><text fill="#000000" font-family="sans-serif" font-size="14" lengthAdjust="spacing" textLength="90.5283" x="745.5" y="912.0732">+getId() : int</text><text fill="#000000" font-family="sans-serif" font-size="14" lengthAdjust="spacing" textLength="140.752" x="745.5" y="928.3701">+getName() : string</text><text fill="#000000" font-family="sans-serif" font-size="14" lengthAdjust="spacing" textLength="141.374" x="745.5" y="944.667">+getPrice() : double</text><text fill="#000000" font-family="sans-serif" font-size="14" lengthAdjust="spacing" textLength="179.1836" x="745.5" y="960.9639">+getDescription() : string</text><text fill="#000000" font-family="sans-serif" font-size="14" lengthAdjust="spacing" textLength="163.3994" x="745.5" y="977.2607">+getCategory() : string</text><text fill="#000000" font-family="sans-serif" font-size="14" lengthAdjust="spacing" textLength="164.8213" x="745.5" y="993.5576">+virtual display() : void</text></g><!--class Clothes--><g class="entity" data-qualified-name="Clothes" data-source-line="22" id="ent0003"><rect fill="#F1F1F1" height="96.8906" rx="2.5" ry="2.5" style="stroke:#181818;stroke-width:0.5;" width="416.6807" x="7" y="1062"/><ellipse cx="184.8403" cy="1078" fill="#C2C2C2" rx="11" ry="11" style="stroke:#181818;stroke-width:1;"/><path d="M187.8091,1083.6406 Q187.231,1083.9375 186.5903,1084.0781 Q185.9497,1084.2344 185.2466,1084.2344 Q182.7466,1084.2344 181.4185,1082.5938 Q180.106,1080.9375 180.106,1077.8125 Q180.106,1074.6875 181.4185,1073.0313 Q182.7466,1071.375 185.2466,1071.375 Q185.9497,1071.375 186.5903,1071.5313 Q187.2466,1071.6875 187.8091,1071.9844 L187.8091,1074.7031 Q187.1841,1074.125 186.5903,1073.8594 Q185.9966,1073.5781 185.3716,1073.5781 Q184.0278,1073.5781 183.3403,1074.6563 Q182.6528,1075.7188 182.6528,1077.8125 Q182.6528,1079.9063 183.3403,1080.9844 Q184.0278,1082.0469 185.3716,1082.0469 Q185.9966,1082.0469 186.5903,1081.7813 Q187.1841,1081.5 187.8091,1080.9219 L187.8091,1083.6406 Z " fill="#000000"/><text fill="#000000" font-family="sans-serif" font-size="14" lengthAdjust="spacing" textLength="52.5" x="205.3403" y="1082.8467">Clothes</text><line style="stroke:#181818;stroke-width:0.5;" x1="8" x2="422.6807" y1="1094" y2="1094"/><line style="stroke:#181818;stroke-width:1;" x1="8" x2="422.6807" y1="1102" y2="1102"/><text fill="#000000" font-family="sans-serif" font-size="14" lengthAdjust="spacing" textLength="404.6807" x="13" y="1118.9951">+Clothes(id: int, name: string, price: double, desc: string)</text><text fill="#000000" font-family="sans-serif" font-size="14" lengthAdjust="spacing" textLength="115.6094" x="13" y="1135.292">+display() : void</text><text fill="#000000" font-family="sans-serif" font-size="14" lengthAdjust="spacing" text-decoration="underline" textLength="233.3926" x="13" y="1151.5889">+getCatalog() : vector&lt;Clothes&gt;</text></g><!--class InformaticsEquipment--><g class="entity" data-qualified-name="InformaticsEquipment" data-source-line="29" id="ent0004"><rect fill="#F1F1F1" height="96.8906" rx="2.5" ry="2.5" style="stroke:#181818;stroke-width:0.5;" width="519.0146" x="459" y="1062"/><ellipse cx="636.8403" cy="1078" fill="#C2C2C2" rx="11" ry="11" style="stroke:#181818;stroke-width:1;"/><path d="M639.8091,1083.6406 Q639.231,1083.9375 638.5903,1084.0781 Q637.9497,1084.2344 637.2466,1084.2344 Q634.7466,1084.2344 633.4185,1082.5938 Q632.106,1080.9375 632.106,1077.8125 Q632.106,1074.6875 633.4185,1073.0313 Q634.7466,1071.375 637.2466,1071.375 Q637.9497,1071.375 638.5903,1071.5313 Q639.2466,1071.6875 639.8091,1071.9844 L639.8091,1074.7031 Q639.1841,1074.125 638.5903,1073.8594 Q637.9966,1073.5781 637.3716,1073.5781 Q636.0278,1073.5781 635.3403,1074.6563 Q634.6528,1075.7188 634.6528,1077.8125 Q634.6528,1079.9063 635.3403,1080.9844 Q636.0278,1082.0469 637.3716,1082.0469 Q637.9966,1082.0469 638.5903,1081.7813 Q639.1841,1081.5 639.8091,1080.9219 L639.8091,1083.6406 Z " fill="#000000"/><text fill="#000000" font-family="sans-serif" font-size="14" lengthAdjust="spacing" textLength="154.834" x="657.3403" y="1082.8467">InformaticsEquipment</text><line style="stroke:#181818;stroke-width:0.5;" x1="460" x2="977.0146" y1="1094" y2="1094"/><line style="stroke:#181818;stroke-width:1;" x1="460" x2="977.0146" y1="1102" y2="1102"/><text fill="#000000" font-family="sans-serif" font-size="14" lengthAdjust="spacing" textLength="507.0146" x="465" y="1118.9951">+InformaticsEquipment(id: int, name: string, price: double, desc: string)</text><text fill="#000000" font-family="sans-serif" font-size="14" lengthAdjust="spacing" textLength="115.6094" x="465" y="1135.292">+display() : void</text><text fill="#000000" font-family="sans-serif" font-size="14" lengthAdjust="spacing" text-decoration="underline" textLength="335.7266" x="465" y="1151.5889">+getCatalog() : vector&lt;InformaticsEquipment&gt;</text></g><!--class KitchenEquipment--><g class="entity" data-qualified-name="KitchenEquipment" data-source-line="36" id="ent0005"><rect fill="#F1F1F1" height="96.8906" rx="2.5" ry="2.5" style="stroke:#181818;stroke-width:0.5;" width="492.792" x="1013" y="1062"/><ellipse cx="1190.8403" cy="1078" fill="#C2C2C2" rx="11" ry="11" style="stroke:#181818;stroke-width:1;"/><path d="M1193.8091,1083.6406 Q1193.231,1083.9375 1192.5903,1084.0781 Q1191.9497,1084.2344 1191.2466,1084.2344 Q1188.7466,1084.2344 1187.4185,1082.5938 Q1186.106,1080.9375 1186.106,1077.8125 Q1186.106,1074.6875 1187.4185,1073.0313 Q1188.7466,1071.375 1191.2466,1071.375 Q1191.9497,1071.375 1192.5903,1071.5313 Q1193.2466,1071.6875 1193.8091,1071.9844 L1193.8091,1074.7031 Q1193.1841,1074.125 1192.5903,1073.8594 Q1191.9966,1073.5781 1191.3716,1073.5781 Q1190.0278,1073.5781 1189.3403,1074.6563 Q1188.6528,1075.7188 1188.6528,1077.8125 Q1188.6528,1079.9063 1189.3403,1080.9844 Q1190.0278,1082.0469 1191.3716,1082.0469 Q1191.9966,1082.0469 1192.5903,1081.7813 Q1193.1841,1081.5 1193.8091,1080.9219 L1193.8091,1083.6406 Z " fill="#000000"/><text fill="#000000" font-family="sans-serif" font-size="14" lengthAdjust="spacing" textLength="128.6113" x="1211.3403" y="1082.8467">KitchenEquipment</text><line style="stroke:#181818;stroke-width:0.5;" x1="1014" x2="1504.792" y1="1094" y2="1094"/><line style="stroke:#181818;stroke-width:1;" x1="1014" x2="1504.792" y1="1102" y2="1102"/><text fill="#000000" font-family="sans-serif" font-size="14" lengthAdjust="spacing" textLength="480.792" x="1019" y="1118.9951">+KitchenEquipment(id: int, name: string, price: double, desc: string)</text><text fill="#000000" font-family="sans-serif" font-size="14" lengthAdjust="spacing" textLength="115.6094" x="1019" y="1135.292">+display() : void</text><text fill="#000000" font-family="sans-serif" font-size="14" lengthAdjust="spacing" text-decoration="underline" textLength="309.5039" x="1019" y="1151.5889">+getCatalog() : vector&lt;KitchenEquipment&gt;</text></g><!--class Others--><g class="entity" data-qualified-name="Others" data-source-line="43" id="ent0006"><rect fill="#F1F1F1" height="96.8906" rx="2.5" ry="2.5" style="stroke:#181818;stroke-width:0.5;" width="411.2256" x="1541" y="1062"/><ellipse cx="1718.8403" cy="1078" fill="#C2C2C2" rx="11" ry="11" style="stroke:#181818;stroke-width:1;"/><path d="M1721.8091,1083.6406 Q1721.231,1083.9375 1720.5903,1084.0781 Q1719.9497,1084.2344 1719.2466,1084.2344 Q1716.7466,1084.2344 1715.4185,1082.5938 Q1714.106,1080.9375 1714.106,1077.8125 Q1714.106,1074.6875 1715.4185,1073.0313 Q1716.7466,1071.375 1719.2466,1071.375 Q1719.9497,1071.375 1720.5903,1071.5313 Q1721.2466,1071.6875 1721.8091,1071.9844 L1721.8091,1074.7031 Q1721.1841,1074.125 1720.5903,1073.8594 Q1719.9966,1073.5781 1719.3716,1073.5781 Q1718.0278,1073.5781 1717.3403,1074.6563 Q1716.6528,1075.7188 1716.6528,1077.8125 Q1716.6528,1079.9063 1717.3403,1080.9844 Q1718.0278,1082.0469 1719.3716,1082.0469 Q1719.9966,1082.0469 1720.5903,1081.7813 Q1721.1841,1081.5 1721.8091,1080.9219 L1721.8091,1083.6406 Z " fill="#000000"/><text fill="#000000" font-family="sans-serif" font-size="14" lengthAdjust="spacing" textLength="47.0449" x="1739.3403" y="1082.8467">Others</text><line style="stroke:#181818;stroke-width:0.5;" x1="1542" x2="1951.2256" y1="1094" y2="1094"/><line style="stroke:#181818;stroke-width:1;" x1="1542" x2="1951.2256" y1="1102" y2="1102"/><text fill="#000000" font-family="sans-serif" font-size="14" lengthAdjust="spacing" textLength="399.2256" x="1547" y="1118.9951">+Others(id: int, name: string, price: double, desc: string)</text><text fill="#000000" font-family="sans-serif" font-size="14" lengthAdjust="spacing" textLength="115.6094" x="1547" y="1135.292">+display() : void</text><text fill="#000000" font-family="sans-serif" font-size="14" lengthAdjust="spacing" text-decoration="underline" textLength="227.9375" x="1547" y="1151.5889">+getCatalog() : vector&lt;Others&gt;</text></g><!--class CartItem--><g class="entity" data-qualified-name="CartItem" data-source-line="50" id="ent0007"><rect fill="#F1F1F1" height="88.8594" rx="2.5" ry="2.5" style="stroke:#181818;stroke-width:0.5;" width="243.8066" x="1012.5" y="575"/><ellipse cx="1099.4189" cy="595.1328" fill="#F1F1F1" rx="11" ry="11" style="stroke:#181818;stroke-width:1;"/><path d="M1098.9033,595.6953 Q1097.0439,594.9922 1096.3877,594.2266 Q1095.7471,593.4453 1095.7471,592.1328 Q1095.7471,590.4453 1096.8252,589.4766 Q1097.9033,588.5078 1099.7783,588.5078 Q1100.6377,588.5078 1101.4814,588.7109 Q1102.3408,588.8984 1103.1846,589.2891 L1103.1846,591.6797 Q1102.4033,591.1172 1101.5752,590.8359 Q1100.7627,590.5391 1099.9658,590.5391 Q1099.0908,590.5391 1098.6064,590.8984 Q1098.1377,591.2578 1098.1377,591.9141 Q1098.1377,592.4297 1098.4814,592.7734 Q1098.8252,593.1016 1099.9189,593.5078 L1100.9814,593.9141 Q1102.4658,594.4609 1103.1689,595.3672 Q1103.8877,596.2734 1103.8877,597.6484 Q1103.8877,599.5234 1102.7783,600.4453 Q1101.6689,601.3672 1099.4189,601.3672 Q1098.4971,601.3672 1097.5752,601.1484 Q1096.6533,600.9297 1095.7939,600.5078 L1095.7939,597.9766 Q1096.7627,598.6641 1097.6846,599.0078 Q1098.6064,599.3516 1099.4971,599.3516 Q1100.4033,599.3516 1100.9033,598.9453 Q1101.4033,598.5234 1101.4033,597.7891 Q1101.4033,597.2266 1101.0596,596.8203 Q1100.7314,596.3984 1100.1064,596.1484 L1098.9033,595.6953 Z " fill="#000000"/><text fill="#000000" font-family="sans-serif" font-size="12" font-style="italic" lengthAdjust="spacing" textLength="49.6113" x="1125.8477" y="591.1387">&#171;struct&#187;</text><text fill="#000000" font-family="sans-serif" font-size="14" lengthAdjust="spacing" textLength="61.4688" x="1119.9189" y="606.9639">CartItem</text><line style="stroke:#181818;stroke-width:0.5;" x1="1013.5" x2="1255.3066" y1="615.2656" y2="615.2656"/><text fill="#000000" font-family="sans-serif" font-size="14" lengthAdjust="spacing" textLength="231.8066" x="1018.5" y="632.2607">+product : shared_ptr&lt;Product&gt;</text><text fill="#000000" font-family="sans-serif" font-size="14" lengthAdjust="spacing" textLength="101.9648" x="1018.5" y="648.5576">+quantity : int</text><line style="stroke:#181818;stroke-width:0.5;" x1="1013.5" x2="1255.3066" y1="655.8594" y2="655.8594"/></g><!--class Cart--><g class="entity" data-qualified-name="Cart" data-source-line="55" id="ent0008"><rect fill="#F1F1F1" height="162.0781" rx="2.5" ry="2.5" style="stroke:#181818;stroke-width:0.5;" width="373.5869" x="979.5" y="336"/><ellipse cx="1147.2437" cy="352" fill="#C2C2C2" rx="11" ry="11" style="stroke:#181818;stroke-width:1;"/><path d="M1150.2124,357.6406 Q1149.6343,357.9375 1148.9937,358.0781 Q1148.353,358.2344 1147.6499,358.2344 Q1145.1499,358.2344 1143.8218,356.5938 Q1142.5093,354.9375 1142.5093,351.8125 Q1142.5093,348.6875 1143.8218,347.0313 Q1145.1499,345.375 1147.6499,345.375 Q1148.353,345.375 1148.9937,345.5313 Q1149.6499,345.6875 1150.2124,345.9844 L1150.2124,348.7031 Q1149.5874,348.125 1148.9937,347.8594 Q1148.3999,347.5781 1147.7749,347.5781 Q1146.4312,347.5781 1145.7437,348.6563 Q1145.0562,349.7188 1145.0562,351.8125 Q1145.0562,353.9063 1145.7437,354.9844 Q1146.4312,356.0469 1147.7749,356.0469 Q1148.3999,356.0469 1148.9937,355.7813 Q1149.5874,355.5 1150.2124,354.9219 L1150.2124,357.6406 Z " fill="#000000"/><text fill="#000000" font-family="sans-serif" font-size="14" lengthAdjust="spacing" textLength="29.5996" x="1167.7437" y="356.8467">Cart</text><line style="stroke:#181818;stroke-width:0.5;" x1="980.5" x2="1352.0869" y1="368" y2="368"/><text fill="#000000" font-family="sans-serif" font-size="14" lengthAdjust="spacing" textLength="186.9287" x="985.5" y="384.9951">-items : vector&lt;CartItem&gt;</text><line style="stroke:#181818;stroke-width:1;" x1="980.5" x2="1352.0869" y1="392.2969" y2="392.2969"/><text fill="#000000" font-family="sans-serif" font-size="14" lengthAdjust="spacing" textLength="361.5869" x="985.5" y="409.292">+addProduct(product: shared_ptr&lt;Product&gt;) : void</text><text fill="#000000" font-family="sans-serif" font-size="14" lengthAdjust="spacing" textLength="267.9482" x="985.5" y="425.5889">+removeProduct(productId: int) : bool</text><text fill="#000000" font-family="sans-serif" font-size="14" lengthAdjust="spacing" textLength="145.209" x="985.5" y="441.8857">+displayCart() : void</text><text fill="#000000" font-family="sans-serif" font-size="14" lengthAdjust="spacing" textLength="203.0273" x="985.5" y="458.1826">+printBill(os: ostream) : void</text><text fill="#000000" font-family="sans-serif" font-size="14" lengthAdjust="spacing" textLength="122.5068" x="985.5" y="474.4795">+isEmpty() : bool</text><text fill="#000000" font-family="sans-serif" font-size="14" lengthAdjust="spacing" textLength="100.4336" x="985.5" y="490.7764">+clear() : void</text></g><!--class Store--><g class="entity" data-qualified-name="Store" data-source-line="66" id="ent0009"><rect fill="#F1F1F1" height="251.5625" rx="2.5" ry="2.5" style="stroke:#181818;stroke-width:0.5;" width="302.5273" x="799" y="7"/><ellipse cx="927.3584" cy="23" fill="#C2C2C2" rx="11" ry="11" style="stroke:#181818;stroke-width:1;"/><path d="M930.3271,28.6406 Q929.749,28.9375 929.1084,29.0781 Q928.4678,29.2344 927.7646,29.2344 Q925.2646,29.2344 923.9365,27.5938 Q922.624,25.9375 922.624,22.8125 Q922.624,19.6875 923.9365,18.0313 Q925.2646,16.375 927.7646,16.375 Q928.4678,16.375 929.1084,16.5313 Q929.7646,16.6875 930.3271,16.9844 L930.3271,19.7031 Q929.7021,19.125 929.1084,18.8594 Q928.5146,18.5781 927.8896,18.5781 Q926.5459,18.5781 925.8584,19.6563 Q925.1709,20.7188 925.1709,22.8125 Q925.1709,24.9063 925.8584,25.9844 Q926.5459,27.0469 927.8896,27.0469 Q928.5146,27.0469 929.1084,26.7813 Q929.7021,26.5 930.3271,25.9219 L930.3271,28.6406 Z " fill="#000000"/><text fill="#000000" font-family="sans-serif" font-size="14" lengthAdjust="spacing" textLength="37.3105" x="947.8584" y="27.8467">Store</text><line style="stroke:#181818;stroke-width:0.5;" x1="800" x2="1100.5273" y1="39" y2="39"/><text fill="#000000" font-family="sans-serif" font-size="14" lengthAdjust="spacing" textLength="290.5273" x="805" y="55.9951">-catalog : vector&lt;shared_ptr&lt;Product&gt;&gt;</text><text fill="#000000" font-family="sans-serif" font-size="14" lengthAdjust="spacing" textLength="75.79" x="805" y="72.292">-cart : Cart</text><line style="stroke:#181818;stroke-width:1;" x1="800" x2="1100.5273" y1="79.5938" y2="79.5938"/><text fill="#000000" font-family="sans-serif" font-size="14" lengthAdjust="spacing" textLength="142.9053" x="805" y="96.5889">-loadCatalog() : void</text><text fill="#000000" font-family="sans-serif" font-size="14" lengthAdjust="spacing" textLength="279.5762" x="805" y="112.8857">-findById(id: int) : shared_ptr&lt;Product&gt;</text><text fill="#000000" font-family="sans-serif" font-size="14" lengthAdjust="spacing" textLength="167.2617" x="805" y="129.1826">-showMainMenu() : void</text><line style="stroke:#181818;stroke-width:1;" x1="800" x2="1100.5273" y1="136.4844" y2="136.4844"/><text fill="#000000" font-family="sans-serif" font-size="14" lengthAdjust="spacing" textLength="59.9648" x="805" y="153.4795">+Store()</text><text fill="#000000" font-family="sans-serif" font-size="14" lengthAdjust="spacing" textLength="132.9658" x="805" y="169.7764">+displayAll() : void</text><text fill="#000000" font-family="sans-serif" font-size="14" lengthAdjust="spacing" textLength="197.4492" x="805" y="186.0732">+displayByCategory() : void</text><text fill="#000000" font-family="sans-serif" font-size="14" lengthAdjust="spacing" textLength="171.9033" x="805" y="202.3701">+searchByName() : void</text><text fill="#000000" font-family="sans-serif" font-size="14" lengthAdjust="spacing" textLength="127.7363" x="805" y="218.667">+viewCart() : void</text><text fill="#000000" font-family="sans-serif" font-size="14" lengthAdjust="spacing" textLength="129.8145" x="805" y="234.9639">+checkout() : void</text><text fill="#000000" font-family="sans-serif" font-size="14" lengthAdjust="spacing" textLength="89.4004" x="805" y="251.2607">+run() : void</text></g><!--reverse link Product to Clothes--><g class="link" data-entity-1="ent0002" data-entity-2="ent0003" data-link-type="extension" data-source-line="84" id="lnk10"><path codeLine="84" d="M722.1935,953.8256 C600.8335,991.1056 475.91,1029.49 370.33,1061.93" fill="none" id="Product-backto-Clothes" style="stroke:#181818;stroke-width:1;"/><polygon fill="none" points="739.4,948.54,720.4317,948.0901,723.9554,959.5611,739.4,948.54" style="stroke:#181818;stroke-width:1;"/></g><!--reverse link Product to InformaticsEquipment--><g class="link" data-entity-1="ent0002" data-entity-2="ent0004" data-link-type="extension" data-source-line="85" id="lnk11"><path codeLine="85" d="M828.1353,1013.0692 C803.5253,1034.7192 792.95,1044.01 772.7,1061.82" fill="none" id="Product-backto-InformaticsEquipment" style="stroke:#181818;stroke-width:1;"/><polygon fill="none" points="841.65,1001.18,824.1722,1008.5643,832.0984,1017.5741,841.65,1001.18" style="stroke:#181818;stroke-width:1;"/></g><!--reverse link Product to KitchenEquipment--><g class="link" data-entity-1="ent0002" data-entity-2="ent0005" data-link-type="extension" data-source-line="86" id="lnk12"><path codeLine="86" d="M1149.4362,1013.0447 C1174.1362,1034.6947 1184.77,1044.01 1205.1,1061.82" fill="none" id="Product-backto-KitchenEquipment" style="stroke:#181818;stroke-width:1;"/><polygon fill="none" points="1135.9,1001.18,1145.4813,1017.5568,1153.3911,1008.5327,1135.9,1001.18" style="stroke:#181818;stroke-width:1;"/></g><!--reverse link Product to Others--><g class="link" data-entity-1="ent0002" data-entity-2="ent0006" data-link-type="extension" data-source-line="87" id="lnk13"><path codeLine="87" d="M1254.9266,955.4817 C1372.8266,992.4217 1492.62,1029.95 1594.71,1061.94" fill="none" id="Product-backto-Others" style="stroke:#181818;stroke-width:1;"/><polygon fill="none" points="1237.75,950.1,1253.1327,961.2073,1256.7206,949.7562,1237.75,950.1" style="stroke:#181818;stroke-width:1;"/></g><!--reverse link CartItem to Product--><g class="link" data-entity-1="ent0007" data-entity-2="ent0002" data-link-type="aggregation" data-source-line="89" id="lnk14"><path codeLine="89" d="M1102.8411,674.6081 C1090.1711,696.2681 1080.19,713.31 1063.99,740.99" fill="none" id="CartItem-backto-Product" style="stroke:#181818;stroke-width:1;"/><polygon fill="none" points="1108.9,664.25,1102.4178,667.4094,1102.8411,674.6081,1109.3232,671.4487,1108.9,664.25" style="stroke:#181818;stroke-width:1;"/><text fill="#000000" font-family="sans-serif" font-size="13" lengthAdjust="spacing" textLength="154.4131" x="1091.5" y="707.0669">points to via shared_ptr</text><text fill="#000000" font-family="sans-serif" font-size="13" lengthAdjust="spacing" textLength="8.271" x="1096.5866" y="684.0112">1</text><text fill="#000000" font-family="sans-serif" font-size="13" lengthAdjust="spacing" textLength="8.271" x="1060.1334" y="730.115">1</text></g><!--reverse link Cart to CartItem--><g class="link" data-entity-1="ent0008" data-entity-2="ent0007" data-link-type="composition" data-source-line="90" id="lnk15"><path codeLine="90" d="M1151.8224,509.9606 C1147.6524,536.1406 1145.05,552.38 1141.47,574.83" fill="none" id="Cart-backto-CartItem" style="stroke:#181818;stroke-width:1;"/><polygon fill="#181818" points="1153.71,498.11,1148.816,503.4061,1151.8224,509.9606,1156.7164,504.6645,1153.71,498.11" style="stroke:#181818;stroke-width:1;"/><text fill="#000000" font-family="sans-serif" font-size="13" lengthAdjust="spacing" textLength="83.6558" x="1149.5" y="541.0669">composed of</text><text fill="#000000" font-family="sans-serif" font-size="13" lengthAdjust="spacing" textLength="8.271" x="1144.2451" y="518.0712">1</text><text fill="#000000" font-family="sans-serif" font-size="13" lengthAdjust="spacing" textLength="6.5" x="1136.131" y="563.9293">*</text></g><!--reverse link Store to Cart--><g class="link" data-entity-1="ent0009" data-entity-2="ent0008" data-link-type="composition" data-source-line="91" id="lnk16"><path codeLine="91" d="M1053.7956,268.8575 C1073.7356,294.8975 1086.94,312.13 1105.22,336" fill="none" id="Store-backto-Cart" style="stroke:#181818;stroke-width:1;"/><polygon fill="#181818" points="1046.5,259.33,1046.972,266.5256,1053.7956,268.8575,1053.3237,261.6619,1046.5,259.33" style="stroke:#181818;stroke-width:1;"/><text fill="#000000" font-family="sans-serif" font-size="13" lengthAdjust="spacing" textLength="55.0278" x="1078.5" y="302.0669">contains</text><text fill="#000000" font-family="sans-serif" font-size="13" lengthAdjust="spacing" textLength="8.271" x="1043.5516" y="278.7313">1</text><text fill="#000000" font-family="sans-serif" font-size="13" lengthAdjust="spacing" textLength="8.271" x="1091.2335" y="324.9108">1</text></g><!--reverse link Store to Product--><g class="link" data-entity-1="ent0009" data-entity-2="ent0002" data-link-type="aggregation" data-source-line="92" id="lnk17"><path codeLine="92" d="M932.6213,271.1159 C924.1613,352.6359 918.6,449.29 927.5,545 C933.55,610.02 946.27,681.43 958.53,740.7" fill="none" id="Store-backto-Product" style="stroke:#181818;stroke-width:1;"/><polygon fill="none" points="933.86,259.18,929.262,264.7351,932.6213,271.1159,937.2193,265.5608,933.86,259.18" style="stroke:#181818;stroke-width:1;"/><text fill="#000000" font-family="sans-serif" font-size="13" lengthAdjust="spacing" textLength="209.2886" x="928.5" y="541.0669">manages via shared_ptr catalog</text><text fill="#000000" font-family="sans-serif" font-size="13" lengthAdjust="spacing" textLength="8.271" x="924.7516" y="278.5731">1</text><text fill="#000000" font-family="sans-serif" font-size="13" lengthAdjust="spacing" textLength="6.5" x="950.6409" y="729.8082">*</text></g><?plantuml-src lLNBRjim4BphAuZqKESXeBaQXe4upS4eqWRD1nGqITj4AAv2hXouQVhjfVYGA5cvz11V3EyETsPdoRLzahgcXbQ4AMhj3QAHcmR5ce5-bBy5-LBO3bA11hOtK0c2fX5PnkufXnUfTsHBbHL5uQkH1mEyOKXU2-8-duZaP4wanlXJKrTfJgpZrBiOguraRP13ir4Y1hcmpCWQ9UWndb4KEp37ORmi_TTbKZ2Jt1DVUSu4lGfiYUpAy_H9LphzE8_b_gPwAR0JkEQpywmj7_lkM7mqq-GJ3osXpsGD-ipNliV9axUnqTFaGHfig29SsbhH03Y0vCLRciEj0jmB6-VGcHF3_s5EQl-4CeHVBLAKx2tgfWfs0I8OWbb4tcKlSAstOAhsZBrxRcHT2OrZjLEO3vS-9IBhuvj4jXVwtHx6-G_NFnQGQV_XPc9ExaY8VhZEGElLkNBj3hcb1jSeAh9OXCXo6RLUEXbXpypRHMG4_rMZMSIdkeoOvuPgb7YCJxL_6wvkQff8Hs2pYnevbqDFAETf3qJcIU9HnqPKS12ZW-lWQmlT0AYXPotzs3VdkCQLL6e6Tax0MI5eDS98UrVL62pFgZ8bg9dO3e-kLT5PmC8mUXCcEbjsMDEQtkhC7Ig90ie7KqtYIhALcg-ERcdAllNtfbQw3BpSKwdlXMv6bT8qlFpPwBhTE8D6hiJCwZZOf1d0EdlOVdNibdUMEqZnCZKEzvZO4pGdSTFeWTEVoK-XQBlSxLxMjaZ_Z8i_PPdsy30ujMc6YF5R7cR32ogAxjsSNPyHS8ds-w5xC3Mu6LY2u5gasI3yEO-zQCzSdFKFS4uOL3LOmGbiYt1xEk1r07gGHZSvco4WbkhfAwhfplqp3SdJ9Vm7?></g></svg>